<?xml version="1.0" encoding="UTF-8" standalone="no"?>
<!-- Created with Inkscape (http://www.inkscape.org/) -->

<svg
   width="512"
   height="512"
   viewBox="0 0 135.46666 135.46667"
   version="1.1"
   id="svg5"
   inkscape:export-filename="/home/reese/Pictures/Art/pywalfox/striped rainbow fox.png"
   inkscape:export-xdpi="96"
   inkscape:export-ydpi="96"
   inkscape:version="1.1.2 (1:1.1+202202050950+0a00cf5339)"
   sodipodi:docname="logo.svg"
   xmlns:inkscape="http://www.inkscape.org/namespaces/inkscape"
   xmlns:sodipodi="http://sodipodi.sourceforge.net/DTD/sodipodi-0.dtd"
   xmlns="http://www.w3.org/2000/svg"
   xmlns:svg="http://www.w3.org/2000/svg">
  <sodipodi:namedview
     id="namedview7"
     pagecolor="#505050"
     bordercolor="#ffffff"
     borderopacity="1"
     inkscape:pageshadow="0"
     inkscape:pageopacity="0"
     inkscape:pagecheckerboard="1"
     inkscape:document-units="px"
     showgrid="false"
     units="px"
     inkscape:showpageshadow="false"
     inkscape:object-paths="false"
     inkscape:zoom="1.5554293"
     inkscape:cx="328.52666"
     inkscape:cy="312.45393"
     inkscape:current-layer="layer3"
     inkscape:object-nodes="false"
     inkscape:snap-page="true" />
  <defs
     id="defs2" />
  <g
     inkscape:label="Layer 1"
     inkscape:groupmode="layer"
     id="layer1"
     style="display:none">
    <g
       id="g66564"
       inkscape:label="original fox"
       transform="translate(171.25155)"
       style="display:inline">
      <g
         id="g66536"
         inkscape:label="ears"
         transform="matrix(0.58460627,0,0,0.58421961,39.249653,27.77966)"
         style="stroke-width:1.71113">
        <path
           style="fill:#b35c14;fill-opacity:1;stroke:none;stroke-width:2.26367;stroke-linecap:butt;stroke-linejoin:miter;stroke-miterlimit:4;stroke-dasharray:none;stroke-opacity:0.467896"
           d="m 67.908016,19.723191 c 0,0 10.908531,-14.8210289 18.584027,-23.0732686 7.675499,-8.2522404 14.865257,-13.0337994 21.077017,-19.6651774 6.19864,-6.617378 17.8659,-22.989106 30.14039,-19.194709 12.27449,3.794398 8.54966,40.1367034 7.07407,50.7316784 C 143.28253,19.298999 144.13549,33.862095 137.85877,46.561579 131.47992,59.467709 120.195,71.853471 120.195,71.853471 L 87.757081,57.691215 Z"
           id="path66528"
           sodipodi:nodetypes="csssssccc" />
        <path
           style="fill:#b35c14;fill-opacity:1;stroke:none;stroke-width:2.26367;stroke-linecap:butt;stroke-linejoin:miter;stroke-miterlimit:4;stroke-dasharray:none;stroke-opacity:0.467896"
           d="m 29.537669,19.72319 c 0,0 -10.90853,-14.8210285 -18.58403,-23.0732682 -7.6755001,-8.2522408 -14.8652501,-13.0337998 -21.07701,-19.6651778 -6.19864,-6.617378 -17.865904,-22.989106 -30.140394,-19.194709 -12.27449,3.794398 -8.54966,40.1367038 -7.07407,50.7316788 1.50099,10.7772842 0.64803,25.3403802 6.92475,38.0398642 6.37885,12.90613 17.66377,25.291892 17.66377,25.291892 L 9.6886089,57.691214 Z"
           id="path66530"
           sodipodi:nodetypes="csssssccc" />
        <path
           style="fill:#924a10;fill-opacity:1;stroke:none;stroke-width:3.62187;stroke-linecap:butt;stroke-linejoin:miter;stroke-miterlimit:4;stroke-dasharray:none;stroke-opacity:1"
           d="m 27.359111,23.890417 c 0,0 -11.701609,-16.0175948 -20.7221946,-25.5082066 -9.0205861,-9.4906114 -13.7292139,-12.9191714 -19.0217684,-18.2129224 -5.292555,-5.293751 -7.554071,-9.528893 -13.540317,-15.375913 -5.986246,-5.847019 -11.635729,-8.239022 -16.798613,-4.048455 0,0 4.181894,-2.700727 9.511086,0.663147 5.329193,3.363874 9.291276,9.503898 15.341988,17.931259 6.050712,8.42736 12.595661,13.7403557 20.5592103,22.8171839 C 10.652052,11.233338 19.960924,24.282559 23.670123,30.946851"
           id="path66532"
           sodipodi:nodetypes="czzzczzzc" />
        <path
           style="fill:#924a10;fill-opacity:1;stroke:none;stroke-width:3.62187;stroke-linecap:butt;stroke-linejoin:miter;stroke-miterlimit:4;stroke-dasharray:none;stroke-opacity:1"
           d="m 70.086574,23.890417 c 0,0 11.701609,-16.0175948 20.722195,-25.5082066 9.020586,-9.4906114 13.729211,-12.9191714 19.021771,-18.2129224 5.29255,-5.293751 7.55407,-9.528893 13.54031,-15.375913 5.98625,-5.847019 11.63573,-8.239022 16.79862,-4.048455 0,0 -4.1819,-2.700727 -9.51109,0.663147 -5.32919,3.363874 -9.29128,9.503898 -15.34199,17.931259 -6.05071,8.42736 -12.59566,13.7403557 -20.559207,22.8171839 C 86.793633,11.233338 77.484761,24.282559 73.775562,30.946851"
           id="path66534"
           sodipodi:nodetypes="czzzczzzc" />
      </g>
      <path
         style="display:inline;fill:#cc6816;fill-opacity:1;stroke:none;stroke-width:1.32292;stroke-linecap:butt;stroke-linejoin:miter;stroke-miterlimit:4;stroke-dasharray:none;stroke-opacity:0.524432"
         d="m 67.308781,130.94145 c 14.303975,-0.0571 50.285279,-36.293289 50.285279,-36.293289 0,0 1.16216,-56.256278 -49.685815,-56.290483 -50.847979,-0.03421 -50.037111,57.004428 -50.037111,57.004428 0,0 35.133673,35.636444 49.437647,35.579344 z"
         id="path66538"
         sodipodi:nodetypes="zczcz"
         inkscape:label="head" />
      <path
         id="path66540"
         style="fill:#e6dcd3;fill-opacity:1;stroke:none;stroke-width:0.264583px;stroke-linecap:butt;stroke-linejoin:miter;stroke-opacity:1"
         d="M 67.733336,128.63285 C 61.888604,128.55115 53.615694,124.96724 49.449269,118.55778 45.801022,112.94546 56.03365,93.13033 57.525056,85.965423 59.01646,78.80052 57.253733,74.142077 49.40806,72.910476 c -8.576237,-1.346284 -14.663308,5.651253 -23.932599,6.410278 -8.960323,0.733726 -13.631294,-1.95719 -13.631294,-1.95719 0.574424,5.478774 2.18824,7.801596 6.189572,10.020595 0,0 -4.615381,0.827239 -4.036045,4.207256 0.579336,3.380016 4.851829,4.963106 4.851829,4.963106 0,0 -3.758048,1.409572 -1.586011,5.414879 2.673404,4.92984 13.42594,8.77833 21.729963,14.36305 7.880611,5.29996 14.044052,16.35776 28.739857,16.34359 14.695805,0.0142 20.859246,-11.04363 28.739862,-16.34359 8.304016,-5.58472 19.056556,-9.43321 21.729956,-14.36305 2.17204,-4.005307 -1.58601,-5.414879 -1.58601,-5.414879 0,0 4.2725,-1.58309 4.85183,-4.963106 0.57934,-3.380017 -4.03604,-4.207256 -4.03604,-4.207256 4.00133,-2.218999 5.61515,-4.541821 6.18957,-10.020595 0,0 -4.67097,2.690916 -13.63129,1.95719 -9.2693,-0.759025 -15.356368,-7.756562 -23.932607,-6.410278 -7.845673,1.231601 -9.608399,5.890044 -8.116996,13.054947 1.491407,7.164907 11.724035,26.980037 8.075788,32.592357 -4.166425,6.40946 -12.439335,9.99336 -18.284067,10.07507"
         sodipodi:nodetypes="cssssccscsscsscsccssssc"
         inkscape:label="face" />
      <g
         id="g66550"
         inkscape:label="eyes"
         transform="matrix(0.65005138,0,0,0.65005138,36.23347,26.822463)"
         style="stroke-width:1.53834">
        <g
           id="g66544"
           inkscape:label="eye"
           style="stroke-width:1.53834">
          <path
             id="path66542"
             style="fill:#201912;fill-opacity:1;stroke:none;stroke-width:1.53834px;stroke-linecap:butt;stroke-linejoin:miter;stroke-opacity:1"
             d="m 62.335938,300.17578 c -28.729838,-0.1297 -32.15625,25.28516 -32.15625,25.28516 -10e-7,0 5.812269,17.61401 33.580078,19.67773 27.767803,2.06372 31.75,-22.5625 31.75,-22.5625 0,0 -9.061584,-22.29154 -33.173828,-22.40039 z m 9.675781,3.08984 a 8.7942963,8.7942963 0 0 1 8.794922,8.79297 8.7942963,8.7942963 0 0 1 -8.794922,8.79493 8.7942963,8.7942963 0 0 1 -8.792969,-8.79493 8.7942963,8.7942963 0 0 1 8.792969,-8.79297 z"
             transform="scale(0.26458333)" />
        </g>
        <g
           id="g66548"
           inkscape:label="eye"
           transform="matrix(-1,0,0,1,96.914991,0)"
           style="stroke-width:1.53834">
          <path
             id="path66546"
             style="fill:#201912;fill-opacity:1;stroke:none;stroke-width:1.53834px;stroke-linecap:butt;stroke-linejoin:miter;stroke-opacity:1"
             d="m 303.95703,300.17578 c -24.11224,0.10885 -33.17383,22.40039 -33.17383,22.40039 0,0 3.98025,24.62622 31.74805,22.5625 27.76781,-2.06372 33.58203,-19.67773 33.58203,-19.67773 0,0 -3.42641,-25.41486 -32.15625,-25.28516 z m 4.09766,3.08984 a 8.7942963,8.7942963 0 0 1 8.79297,8.79297 8.7942963,8.7942963 0 0 1 -8.79297,8.79493 8.7942963,8.7942963 0 0 1 -8.79492,-8.79493 8.7942963,8.7942963 0 0 1 8.79492,-8.79297 z"
             transform="matrix(-0.26458333,0,0,0.26458333,96.914991,0)" />
        </g>
      </g>
      <g
         id="g66556"
         inkscape:label="nose"
         transform="matrix(0.65005138,0,0,0.65005138,37.423299,26.822463)"
         style="stroke-width:1.22106;stroke-miterlimit:4;stroke-dasharray:none">
        <path
           style="fill:#201912;fill-opacity:1;stroke:none;stroke-width:1.22106;stroke-linecap:butt;stroke-linejoin:miter;stroke-miterlimit:4;stroke-dasharray:none;stroke-opacity:1"
           d="m 46.934712,136.0077 c 0,0 -13.3201,-5.20656 -13.267967,-11.99225 0.04699,-6.11618 6.468126,-10.68869 12.671703,-10.76389 6.203576,-0.0752 12.885858,3.66218 13.242032,10.36168 0.356174,6.6995 -12.645768,12.39446 -12.645768,12.39446 z"
           id="path66552"
           sodipodi:nodetypes="csssc" />
        <path
           style="opacity:0.419041;fill:#fdfcfb;fill-opacity:0.247924;stroke:none;stroke-width:0.407019;stroke-linecap:round;stroke-linejoin:round;stroke-miterlimit:4;stroke-dasharray:none;stroke-opacity:1"
           d="m 58.906646,122.56607 c 0,0 -2.121928,-3.10419 -5.338081,-3.09498 -3.395934,0.0104 -7.050328,1.40344 -7.050328,1.40344 0,0 -3.287185,-1.40746 -6.73437,-1.39193 -3.224262,0.0146 -5.440417,3.19292 -5.440417,3.19292 0,0 2.279838,-2.55738 5.246565,-2.57922 2.966726,-0.0219 6.91889,2.21876 6.91889,2.21876 0,0 4.005334,-2.30015 7.31747,-2.24469 3.312138,0.0554 5.080271,2.4957 5.080271,2.4957 z"
           id="path66554"
           sodipodi:nodetypes="cscscscsc" />
      </g>
      <path
         style="fill:none;stroke:#201912;stroke-width:0.793752;stroke-linecap:round;stroke-linejoin:miter;stroke-miterlimit:4;stroke-dasharray:none;stroke-opacity:1"
         d="m 63.305251,120.55509 c 0,0 1.292683,0.5311 4.368346,0.53561 3.075663,0.005 4.491466,-0.50323 4.491466,-0.50323"
         id="path66558"
         sodipodi:nodetypes="czc"
         inkscape:label="mouth" />
      <path
         id="path66560"
         style="fill:#201912;fill-opacity:0.247924;stroke:none;stroke-width:0.999999px;stroke-linecap:butt;stroke-linejoin:miter;stroke-opacity:1"
         d="m 177.85352,274.92188 c -19.52766,0.21543 -36.10549,10.98172 -55.14258,18.3496 l 0.0625,0.004 c 0,0 26.89282,-10.83005 42.51367,-12.93945 15.62085,-2.10941 28.27536,-0.27031 35.50195,4.02734 7.11408,4.23075 19.94968,12.8685 16.4336,41.38672 0.0617,-0.27532 0.1399,-0.57562 0.19531,-0.8418 5.6368,-27.07995 -1.02675,-44.68692 -30.67969,-49.34179 -3.03882,-0.47703 -5.99365,-0.67643 -8.88476,-0.64453 z"
         transform="scale(0.26458333)" />
      <path
         id="path66562"
         style="fill:#201912;fill-opacity:0.247924;stroke:none;stroke-width:0.999999px;stroke-linecap:butt;stroke-linejoin:miter;stroke-opacity:1"
         d="m 334.14648,274.92188 c -2.89111,-0.0319 -5.84594,0.1675 -8.88476,0.64453 -29.65294,4.65487 -36.31649,22.26184 -30.67969,49.34179 0.0554,0.26618 0.1336,0.56648 0.19531,0.8418 -3.51608,-28.51822 9.31952,-37.15597 16.4336,-41.38672 7.22659,-4.29765 19.8811,-6.13675 35.50195,-4.02734 15.62085,2.1094 42.51367,12.93945 42.51367,12.93945 l 0.0625,-0.004 c -19.0371,-7.36788 -35.61492,-18.13417 -55.14258,-18.3496 z"
         transform="scale(0.26458333)" />
    </g>
  </g>
  <g
     inkscape:groupmode="layer"
     id="layer3"
     inkscape:label="bg">
    <path
       id="path1864"
       style="fill:#ed7979;fill-opacity:1;stroke-width:0.264583;stroke-linecap:round;stroke-linejoin:round"
       d="M 10.172068,7.1024049 V 128.36426 H 29.359156 48.546244 67.733332 86.92042 106.10751 125.2946 V 7.1024049 H 106.10751 86.92042 67.733332 48.546244 29.359156 Z" />
    <path
       id="path1862"
       style="fill:#edb979;fill-opacity:1;stroke-width:0.264583;stroke-linecap:round;stroke-linejoin:round"
       d="M 29.359156,7.1024049 V 128.36426 H 48.546244 67.733332 86.92042 106.10751 125.2946 V 7.1024049 H 106.10751 86.92042 67.733332 48.546244 Z" />
    <path
       id="path1860"
       style="fill:#eded79;fill-opacity:1;stroke-width:0.264583;stroke-linecap:round;stroke-linejoin:round"
       d="M 48.546244,7.1024049 V 128.36426 H 67.733332 86.92042 106.10751 125.2946 V 7.1024049 H 106.10751 86.92042 67.733332 Z" />
    <path
       id="path1858"
       style="fill:#72e986;fill-opacity:1;stroke-width:0.264583;stroke-linecap:round;stroke-linejoin:round"
       d="M 67.733332,7.1024049 V 128.36426 H 86.92042 106.10751 125.2946 V 7.1024049 H 106.10751 86.92042 Z" />
    <path
       id="path1856"
       style="fill:#7d8eef;fill-opacity:1;stroke-width:0.264583;stroke-linecap:round;stroke-linejoin:round"
       d="M 86.92042,7.1024049 V 128.36426 h 19.18709 19.18709 V 7.1024049 h -19.18709 z" />
    <path
       id="rect1381"
       style="fill:#b179ed;stroke-width:0.264583;stroke-linecap:round;stroke-linejoin:round"
       d="m 106.1075,7.1024049 h 19.1871 V 128.36426 h -19.1871 z" />
  </g>
  <g
     inkscape:groupmode="layer"
     id="layer2"
     inkscape:label="fg"
     style="display:inline">
    <path
       style="display:inline;fill:#000000;stroke-width:11.1;stroke-linecap:round"
       d="m 81.929688,33.875 c -3.814603,0.02408 -7.525098,1.364044 -11.119141,4.279297 0,0 8.469531,-5.463952 19.261719,1.34375 10.792194,6.8077 18.815034,19.232085 31.068354,36.287109 12.25335,17.055024 25.50773,27.808334 41.63477,46.177734 10.96414,12.48861 23.10878,28.61958 32.17188,41.95313 4.26902,-1.48831 8.69725,-2.82873 13.29882,-3.99805 -7.7154,-10.25745 -24.03047,-31.45846 -37.47461,-45.59375 C 152.50384,95.117418 142.96799,88.178169 132.25,77.464844 121.53201,66.751515 116.95287,58.180671 104.83008,46.347656 96.874493,38.582242 89.212099,33.829029 81.929688,33.875 Z"
       id="path1114"
       transform="scale(0.26458333)" />
    <path
       style="display:inline;fill:#000000;stroke-width:11.1;stroke-linecap:round"
       d="M 430.07031,33.875 C 422.7879,33.82903 415.1255,38.582242 407.16992,46.347656 395.04715,58.180671 390.46799,66.751515 379.75,77.464844 c -10.71799,10.713325 -20.25383,17.652574 -38.52148,36.859376 -13.34707,14.03322 -29.49983,35.00314 -37.28321,45.34375 4.62166,1.13696 9.05012,2.45866 13.33594,3.91211 9.03911,-13.26841 21.072,-29.23425 31.94336,-41.61719 16.12704,-18.3694 29.3814,-29.12271 41.63477,-46.177734 12.25332,-17.055024 20.27616,-29.479409 31.06835,-36.287109 10.7922,-6.807702 19.26172,-1.34375 19.26172,-1.34375 -3.59406,-2.915253 -7.30452,-4.255222 -11.11914,-4.279297 z"
       transform="scale(0.26458333)"
       id="path1116" />
    <path
       style="display:inline;fill:#000000;stroke-width:11.1;stroke-linecap:round"
       d="m 184.37695,273.3418 c -17.8977,0.19745 -33.09293,10.06547 -50.54101,16.81836 l 0.0586,0.004 c 0,0 24.64785,-9.92604 38.96485,-11.85937 14.31699,-1.93334 25.91566,-0.24753 32.53906,3.6914 6.52027,3.87762 18.28314,11.79381 15.06054,37.93164 0.0565,-0.25233 0.12887,-0.52751 0.17969,-0.77148 5.1663,-24.81961 -0.9413,-40.95632 -28.11914,-45.22266 -2.78517,-0.43722 -5.49279,-0.62089 -8.14258,-0.59179 z"
       transform="scale(0.26458333)"
       id="path1118" />
    <path
       style="display:inline;fill:#000000;stroke-width:11.1;stroke-linecap:round"
       d="m 327.62305,273.3418 c -2.64979,-0.0292 -5.35741,0.15459 -8.14258,0.59179 -27.17784,4.26635 -33.28544,20.40305 -28.11914,45.22266 0.0507,0.24396 0.12308,0.51916 0.17969,0.77148 -3.2226,-26.13783 8.54027,-34.05402 15.06054,-37.93164 6.6234,-3.93894 18.22207,-5.62474 32.53906,-3.6914 14.31701,1.93333 38.96485,11.85937 38.96485,11.85937 l 0.0586,-0.004 c -17.44808,-6.75279 -32.64332,-16.62081 -50.54102,-16.81826 z"
       transform="scale(0.26458333)"
       id="path1120" />
    <path
       id="path1130"
       style="display:inline;fill:#000000;stroke-width:11.1;stroke-linecap:round"
       d="m 248.12109,377.01562 c -10.84627,-0.18326 -21.21936,5.33687 -21.30468,16.52735 -0.11651,15.28012 29.5039,27.00391 29.5039,27.00391 0,0 28.88637,-12.80289 28.84766,-27.91016 -0.0353,-13.76614 -16.67556,-17.75709 -29.58203,-14.58203 -2.43268,-0.65008 -4.96186,-0.99677 -7.46485,-1.03907 z m 22.31836,6.26758 c 7.24217,-0.0207 13.21094,6.9961 13.21094,6.9961 0,0 -5.14522,-5.33818 -12.60351,-5.46289 C 263.58856,384.69153 256,389.0957 256,389.0957 c -1e-5,0 -9.16519,-4.42809 -15.8457,-4.3789 -6.68052,0.0492 -11.81446,5.80859 -11.81446,5.80859 0,0 4.98958,-7.15481 12.25,-7.18945 7.76243,-0.035 15.40625,3.13281 15.40625,3.13281 0,0 6.79635,-3.1613 14.44336,-3.18555 z"
       transform="scale(0.26458333)" />
    <path
       id="rect68112"
       style="display:inline;fill:#000000;stroke-width:11.1;stroke-linecap:round"
       d="M 64,0 C 28.544001,0 0,28.544001 0,64 v 384 c 0,35.456 28.544001,64 64,64 h 384 c 35.456,0 64,-28.544 64,-64 V 64 C 512,28.544001 483.456,0 448,0 Z M 82.742188,31.041016 C 104.98163,30.534414 125.454,58.884949 136.83008,71.021484 149.40956,84.44186 163.97,94.117731 179.51367,110.81836 c 15.54372,16.70062 37.63477,46.69531 37.63477,46.69531 l -0.23633,0.45117 c 12.1047,-2.41584 25.29711,-3.73465 39.69336,-3.72461 13.86955,0.009 26.62036,1.22874 38.3457,3.46289 l -0.0996,-0.18945 c 0,0 22.09106,-29.99469 37.63477,-46.69531 15.54371,-16.700625 30.1041,-26.3765 42.68359,-39.796876 12.5529,-13.39204 36.17993,-46.524683 61.03711,-38.845703 24.85715,7.678983 17.3144,81.226199 14.32617,102.667969 -3.03964,21.81073 -1.3124,51.28358 -14.02343,76.98437 -7.89479,15.96276 -19.45904,31.4636 -27.29102,41.15821 6.31213,14.89573 10.59377,29.74898 13.48437,43.17578 17.74157,-1.53312 26.9004,-6.80273 26.9004,-6.80273 -1.98983,18.97874 -7.58062,27.02614 -21.44141,34.71289 0,0 15.9873,2.86566 13.98047,14.57421 -2.00683,11.70857 -16.80664,17.19141 -16.80664,17.19141 0,0 13.0182,4.88322 5.49414,18.75781 -9.2608,17.07727 -46.50788,30.40814 -75.27344,49.75391 -27.29888,18.35935 -48.64958,56.66442 -99.55664,56.61523 -50.90706,0.0491 -72.25778,-38.25588 -99.55664,-56.61523 -28.76559,-19.34577 -66.012622,-32.67664 -75.273438,-49.75391 -7.524054,-13.87459 5.494141,-18.75781 5.49414,-18.75781 10e-7,0 -14.799789,-5.48284 -16.80664,-17.19141 -2.006851,-11.70855 13.980469,-14.57421 13.980469,-14.57421 -13.860831,-7.68675 -19.451571,-15.73415 -21.441407,-34.71289 0,0 9.4166,5.39557 27.609375,6.8496 2.981515,-13.24287 7.282975,-27.7694 13.486331,-42.33203 C 95.665201,244.25874 83.619569,228.2651 75.490234,211.82812 62.7792,186.12733 64.506463,156.65448 61.466797,134.84375 58.478565,113.40198 50.935804,39.854764 75.792969,32.175781 c 2.330359,-0.719904 4.648588,-1.082354 6.949219,-1.134765 z"
       transform="scale(0.26458333)" />
  </g>
</svg>
